<svg width="30" height="29" viewBox="0 0 30 29" fill="none" xmlns="http://www.w3.org/2000/svg">
<path fill-rule="evenodd" clip-rule="evenodd" d="M10.9989 23.0003C9.34291 23.0003 7.99891 24.3443 7.99891 26.0003C7.99891 27.6563 9.34291 29.0003 10.9989 29.0003C12.6549 29.0003 13.9989 27.6563 13.9989 26.0003C13.9989 24.3443 12.6549 23.0003 10.9989 23.0003ZM10.9989 25.0003C11.5509 25.0003 11.9989 25.4483 11.9989 26.0003C11.9989 26.5523 11.5509 27.0003 10.9989 27.0003C10.4469 27.0003 9.99891 26.5523 9.99891 26.0003C9.99891 25.4483 10.4469 25.0003 10.9989 25.0003Z" fill="white"/>
<path fill-rule="evenodd" clip-rule="evenodd" d="M22.9983 23.0003C21.3423 23.0003 19.9983 24.3443 19.9983 26.0003C19.9983 27.6563 21.3423 29.0003 22.9983 29.0003C24.6543 29.0003 25.9983 27.6563 25.9983 26.0003C25.9983 24.3443 24.6543 23.0003 22.9983 23.0003ZM22.9983 25.0003C23.5503 25.0003 23.9983 25.4483 23.9983 26.0003C23.9983 26.5523 23.5503 27.0003 22.9983 27.0003C22.4463 27.0003 21.9983 26.5523 21.9983 26.0003C21.9983 25.4483 22.4463 25.0003 22.9983 25.0003Z" fill="white"/>
<path fill-rule="evenodd" clip-rule="evenodd" d="M3.292 2.836C3.588 4.611 6.683 19.629 6.683 19.629C6.98 21.012 8.202 22 9.617 22C13.036 22 20.964 22 24.383 22C25.798 22 27.02 21.012 27.317 19.629L29.459 9.629C29.649 8.743 29.429 7.81901 28.859 7.11401C28.289 6.40901 27.432 6 26.526 6H5.847L5.265 2.50699C5.024 1.05999 3.772 0 2.306 0C1.626 0 1 0 1 0C0.448 0 0 0.448 0 1C0 1.552 0.448 2 1 2H2.306C2.795 2 3.212 2.353 3.292 2.836ZM27.504 9.20999L25.361 19.21C25.262 19.671 24.855 20 24.383 20C20.964 20 13.036 20 9.617 20C9.145 20 8.738 19.671 8.639 19.21L6.237 8H26.526C26.828 8 27.114 8.136 27.304 8.371C27.494 8.606 27.567 8.91399 27.504 9.20999Z" fill="white"/>
</svg>
