<svg width="24" height="24" viewBox="0 0 24 24" fill="none" xmlns="http://www.w3.org/2000/svg">
<path d="M9.12109 17.9395C7.45019 17.9395 6.09082 19.2988 6.09082 20.9697C6.09082 22.6406 7.45019 24 9.12109 24C10.792 24 12.1514 22.6406 12.1514 20.9697C12.1514 19.2988 10.7919 17.9395 9.12109 17.9395ZM9.12109 22.1818C8.45261 22.1818 7.909 21.6382 7.909 20.9697C7.909 20.3012 8.45261 19.7576 9.12109 19.7576C9.78924 19.7576 10.3332 20.3012 10.3332 20.9697C10.3332 21.6381 9.78957 22.1818 9.12109 22.1818Z" fill="white"/>
<path d="M18.0911 17.9395C16.4202 17.9395 15.0608 19.2988 15.0608 20.9697C15.0608 22.6406 16.4202 24 18.0911 24C19.762 24 21.1213 22.6406 21.1213 20.9697C21.1213 19.2988 19.762 17.9395 18.0911 17.9395ZM18.0911 22.1818C17.4226 22.1818 16.879 21.6382 16.879 20.9697C16.879 20.3012 17.4226 19.7576 18.0911 19.7576C18.7595 19.7576 19.3031 20.3012 19.3031 20.9697C19.3031 21.6381 18.7595 22.1818 18.0911 22.1818Z" fill="white"/>
<path d="M23.3478 5.91907C23.175 5.70209 22.9132 5.57576 22.6363 5.57576H6.71837L5.89201 1.39946C5.81959 1.03369 5.53112 0.749162 5.16414 0.681896L1.52782 0.0152435C1.03301 -0.0759748 0.560282 0.251633 0.469673 0.745552C0.379064 1.23947 0.706016 1.71309 1.19998 1.8037L4.22842 2.35884L6.89626 15.8432C6.98049 16.2689 7.35413 16.5759 7.78805 16.5759H20.5151C20.9384 16.5759 21.3054 16.2841 21.4009 15.871L23.522 6.68937C23.5844 6.41937 23.5202 6.13573 23.3478 5.91907ZM19.7921 14.7577H8.53467L7.07804 7.39422H21.4929L19.7921 14.7577Z" fill="white"/>
</svg>
