<svg width="29" height="25" viewBox="0 0 29 25" fill="none" xmlns="http://www.w3.org/2000/svg">
<path d="M7.69976 0C5.72297 0 3.74905 0.761637 2.24884 2.2669C-0.751535 5.27745 -0.747691 10.1422 2.24884 13.1547L13.7173 24.6791C13.8186 24.7807 13.9394 24.8614 14.0727 24.9165C14.206 24.9716 14.3491 25 14.4936 25C14.6381 25 14.7812 24.9716 14.9145 24.9165C15.0478 24.8614 15.1686 24.7807 15.2699 24.6791C19.097 20.8391 22.9226 17.0059 26.7497 13.1659C29.7501 10.1554 29.7501 5.28861 26.7497 2.27807C23.7493 -0.732467 18.837 -0.732503 15.8365 2.27807L14.4993 3.61811L13.1507 2.2669C11.6505 0.761637 9.67655 0 7.69976 0ZM7.69976 2.12173C9.10485 2.12173 10.507 2.66845 11.5981 3.76328L13.7287 5.89618C13.8299 5.9978 13.9507 6.07852 14.084 6.13361C14.2173 6.18871 14.3604 6.21708 14.5049 6.21708C14.6495 6.21708 14.7925 6.18871 14.9258 6.13361C15.0591 6.07852 15.1799 5.9978 15.2812 5.89618L17.3891 3.77445C19.5714 1.58475 23.0149 1.58478 25.1972 3.77445C27.3795 5.96411 27.3795 9.46871 25.1972 11.6584C21.6302 15.2373 18.0663 18.8221 14.4993 22.4011L3.80138 11.6472C1.62035 9.45451 1.61912 5.95294 3.80138 3.76328C4.89256 2.66845 6.29467 2.12173 7.69976 2.12173Z" fill="white"/>
</svg>
