<svg width="22" height="22" viewBox="0 0 22 22" fill="none" xmlns="http://www.w3.org/2000/svg">
<path d="M9.7605 0.5C4.65431 0.5 0.5 4.65283 0.5 9.75726C0.5 14.8617 4.65435 19.0145 9.7605 19.0145C14.8666 19.0145 19.021 14.8617 19.021 9.75726C19.021 4.65283 14.8667 0.5 9.7605 0.5ZM9.7605 17.4927C5.4913 17.4927 2.01812 14.0224 2.01812 9.75722C2.01812 5.49177 5.4913 2.0217 9.7605 2.0217C14.0297 2.0217 17.5029 5.49177 17.5029 9.75722C17.5029 14.0224 14.0297 17.4927 9.7605 17.4927Z" fill="white"/>
<path d="M21.2764 20.1997L16.2919 15.2287C15.9946 14.9324 15.5141 14.9337 15.2183 15.2315C14.9228 15.5295 14.9241 16.0111 15.2211 16.3076L20.2056 21.2786C20.3539 21.4262 20.5472 21.5 20.741 21.5C20.9361 21.5 21.1309 21.4252 21.2792 21.2758C21.5747 20.9778 21.5734 20.4961 21.2764 20.1997Z" fill="white"/>
</svg>
