<svg width="23" height="28" viewBox="0 0 23 28" fill="none" xmlns="http://www.w3.org/2000/svg">
<path fill-rule="evenodd" clip-rule="evenodd" d="M15.1383 11.9241C16.7793 10.7401 17.8517 8.77604 17.8517 6.55172C17.8517 2.93103 15.0102 0 11.5 0C7.98983 0 5.14826 2.93103 5.14826 6.55172C5.14826 8.77603 6.22069 10.7401 7.86174 11.9241C8.22398 12.1855 8.61393 12.4089 9.02616 12.5887C9.78632 12.9202 10.6223 13.1034 11.5 13.1034C12.3777 13.1034 13.2137 12.9202 13.9738 12.5887C14.3861 12.4089 14.776 12.1855 15.1383 11.9241ZM15.5924 14.0117C15.0672 13.9134 14.5263 13.8621 13.9738 13.8621H9.02616C8.47372 13.8621 7.93279 13.9134 7.40761 14.0117C3.19755 14.7995 0 18.6043 0 23.1724V26.9655C0 27.5517 0.434593 28 1.00291 28H21.9971C22.5654 28 23 27.5517 23 26.9655V23.1724C23 18.6043 19.8025 14.7995 15.5924 14.0117ZM11.5 2C9.15239 2 7.14826 3.97671 7.14826 6.55172C7.14826 9.12673 9.15239 11.1034 11.5 11.1034C13.8476 11.1034 15.8517 9.12673 15.8517 6.55172C15.8517 3.97671 13.8476 2 11.5 2ZM13.9738 15.8621H9.02616C5.20761 15.8621 2 19.0802 2 23.1724V26H21V23.1724C21 19.0802 17.7924 15.8621 13.9738 15.8621Z" fill="white"/>
</svg>
