<svg width="15" height="14" viewBox="0 0 15 14" fill="none" xmlns="http://www.w3.org/2000/svg">
<path fill-rule="evenodd" clip-rule="evenodd" d="M1.08275 0.36725C1.49828 -0.0378783 2.172 -0.0378783 2.58754 0.36725L14.6258 12.1041C15.0414 12.5092 15.0414 13.166 14.6258 13.5712C14.2103 13.9763 13.5366 13.9763 13.1211 13.5712L1.08275 1.83435C0.667212 1.42922 0.667212 0.772379 1.08275 0.36725Z" fill="white"/>
<path fill-rule="evenodd" clip-rule="evenodd" d="M0.36805 13.4683C-0.0440883 13.0599 -0.0386018 12.403 0.380304 12.0012L12.5163 0.360397C12.9352 -0.0414187 13.6089 -0.0360696 14.021 0.372345C14.4331 0.780759 14.4276 1.43758 14.0087 1.8394L1.87279 13.4802C1.45388 13.882 0.780188 13.8767 0.36805 13.4683Z" fill="white"/>
</svg>
