<svg width="32" height="32" viewBox="0 0 32 32" fill="none" xmlns="http://www.w3.org/2000/svg">
<path d="M7.78665 16.0372C7.12397 14.1519 5.06786 8.1564 8.86915 3.11283C12.5185 -1.72907 19.8302 0.227716 22.4452 1.3985C17.7519 1.73964 8.24873 5.1447 7.78665 16.0372Z" fill="#FF5C00"/>
<path d="M11.972 22.9861C10.0054 22.6163 3.77621 21.3955 1.30173 15.5888C-1.07461 10.0124 4.27913 4.66912 6.60246 2.99341C4.55065 7.22167 2.75318 17.14 11.972 22.9861Z" fill="#FF5C00"/>
<path d="M20.028 23.0254C18.7241 24.5402 14.5503 29.3163 8.27527 28.5517C2.25025 27.8179 0.292296 20.5172 0 17.6714C2.64284 21.5585 10.3479 28.0718 20.028 23.0254Z" fill="#FF5C00"/>
<path d="M24.1359 15.9628C24.7986 17.848 26.8547 23.8443 23.0534 28.8871C19.404 33.729 12.0923 31.7722 9.47743 30.6014C14.1714 30.2603 23.6739 26.8552 24.1359 15.9628Z" fill="#FF5C00"/>
<path d="M20.028 8.94022C21.9946 9.30997 28.2238 10.5308 30.6983 16.3375C33.0739 21.9132 27.7201 27.2564 25.3975 28.9322C27.4486 24.7039 29.2461 14.7855 20.028 8.94022Z" fill="#FF5C00"/>
<path d="M11.972 8.86731C13.2759 7.35252 17.4497 2.57642 23.7247 3.34097C29.7497 4.07476 31.7077 11.3748 32 14.2213C29.3572 10.3342 21.6521 3.82087 11.972 8.86731Z" fill="#FF5C00"/>
</svg>
