<svg width="16" height="16" viewBox="0 0 16 16" fill="none" xmlns="http://www.w3.org/2000/svg">
<path d="M12.8795 10.9624C13.8547 9.51096 14.2545 7.74843 14.0012 6.01825C13.7479 4.28806 12.8596 2.71414 11.5093 1.60312C10.1589 0.492101 8.44339 -0.0764375 6.69681 0.00826824C4.95024 0.092974 3.29775 0.824857 2.06129 2.06133C0.824831 3.2978 0.0929602 4.9503 0.00826601 6.69688C-0.0764282 8.44346 0.49212 10.159 1.60314 11.5093C2.71417 12.8596 4.28809 13.748 6.01827 14.0013C7.74846 14.2546 9.51097 13.8547 10.9624 12.8795L13.6234 15.5405C13.8776 15.7947 14.2224 15.9375 14.5819 15.9375C14.9414 15.9375 15.2862 15.7947 15.5405 15.5405C15.7947 15.2862 15.9375 14.9414 15.9375 14.5819C15.9375 14.2224 15.7947 13.8776 15.5405 13.6234L12.8795 10.9624ZM7.04401 12.4488C5.97504 12.4488 4.93007 12.1318 4.04125 11.538C3.15244 10.9441 2.45969 10.0999 2.05061 9.11233C1.64154 8.12472 1.53451 7.03798 1.74305 5.98955C1.9516 4.94111 2.46637 3.97806 3.22225 3.22218C3.97813 2.4663 4.94118 1.95154 5.98961 1.74299C7.03805 1.53445 8.12478 1.64148 9.11238 2.05057C10.1 2.45965 10.9441 3.1524 11.538 4.04123C12.1319 4.93005 12.4489 5.97502 12.4489 7.044C12.4472 8.47696 11.8773 9.85077 10.864 10.864C9.85077 11.8773 8.47697 12.4472 7.04401 12.4488Z" fill="white"/>
</svg>
